<svg width="60" height="60" viewBox="0 0 60 60" fill="none" xmlns="http://www.w3.org/2000/svg">
<path d="M30 0C13.4619 0 0 13.4619 0 30C0 46.5381 13.4619 60 30 60C46.5381 60 60 46.5381 60 30C59.9854 13.4619 46.5381 0 30 0Z" fill="#001838"/>
<path d="M56.8652 30C56.8652 15.1611 44.8389 3.13477 29.9854 3.13477C15.1465 3.13477 3.10547 15.1611 3.10547 30C3.10547 44.8389 15.1465 56.8799 29.9854 56.8799C44.8389 56.8652 56.8652 44.8389 56.8652 30Z" fill="white"/>
<path d="M47.1094 30C47.1094 20.5518 39.4482 12.8906 30 12.8906C20.5518 12.8906 12.8906 20.5518 12.8906 30C12.8906 39.4482 20.5518 47.1094 30 47.1094C39.4482 47.1094 47.1094 39.4482 47.1094 30Z" fill="#6CADDF"/>
<path d="M30 48.457C19.8193 48.457 11.543 40.166 11.543 29.9854C11.543 19.8047 19.8193 11.5283 30 11.5283C40.1807 11.5283 48.4717 19.8047 48.4717 29.9854C48.457 40.1807 40.1807 48.457 30 48.457ZM30 12.5684C20.3906 12.5684 12.5684 20.3906 12.5684 30C12.5684 39.6094 20.3906 47.4316 30 47.4316C39.6094 47.4316 47.4316 39.6094 47.4316 30C47.4316 20.3906 39.6094 12.5684 30 12.5684Z" fill="#001838"/>
<path d="M30 58.7695C14.1357 58.7695 1.23047 45.8643 1.23047 30C1.23047 14.1357 14.1357 1.23047 30 1.23047C45.8643 1.23047 58.7695 14.1357 58.7695 30C58.7549 45.8643 45.8643 58.7695 30 58.7695ZM30 1.8457C14.4727 1.8457 1.86035 14.4727 1.86035 30C1.86035 45.5127 14.4873 58.1396 30 58.1396C45.5127 58.1396 58.1396 45.5127 58.1396 30C58.1396 14.4727 45.5127 1.8457 30 1.8457Z" fill="#6CADDF"/>
<path d="M5.99121 29.3418L5.50781 29.459L5.37598 28.9609L6.18164 28.7266H6.5918V31.5391H5.99121V29.3418Z" fill="#6CADDF"/>
<path d="M7.29492 30.7617C7.29492 30.4102 7.45606 30.2197 7.74902 30.0879C7.5293 29.9561 7.39746 29.7803 7.39746 29.4727V29.458C7.39746 29.0332 7.79297 28.6963 8.37891 28.6963C8.96484 28.6963 9.36035 29.0332 9.36035 29.458V29.4727C9.36035 29.7656 9.22852 29.9561 9.00879 30.0879C9.28711 30.2344 9.46289 30.4102 9.46289 30.7471V30.7617C9.46289 31.2744 9.00879 31.582 8.39355 31.582C7.77832 31.582 7.29492 31.2451 7.29492 30.7617ZM8.84766 30.7178C8.84766 30.498 8.64258 30.3662 8.36426 30.3662C8.08594 30.3662 7.88086 30.498 7.88086 30.7031C7.88086 30.8936 8.05664 31.0547 8.36426 31.0547C8.67187 31.0547 8.84766 30.9082 8.84766 30.7178ZM8.77441 29.5459C8.77441 29.3701 8.62793 29.209 8.37891 29.209C8.12988 29.209 7.9834 29.3555 7.9834 29.5313V29.5459C7.9834 29.7363 8.14453 29.8828 8.37891 29.8828C8.61328 29.8828 8.77441 29.7363 8.77441 29.5459Z" fill="#6CADDF"/>
<path d="M51.5186 30.3809C51.3721 30.498 51.1963 30.5713 50.9473 30.5713C50.3467 30.5713 49.9512 30.2344 49.9512 29.6777V29.6631C49.9512 29.1064 50.3906 28.6816 51.0205 28.6816C51.4014 28.6816 51.6064 28.7695 51.8262 28.9893C52.0312 29.1943 52.1484 29.4873 52.1484 30.0439V30.0586C52.1484 30.9668 51.7236 31.582 50.9326 31.582C50.5225 31.582 50.2588 31.4502 50.0098 31.2451L50.332 30.7764C50.5371 30.9375 50.7129 31.0107 50.9473 31.0107C51.3721 31.0107 51.4893 30.6152 51.5186 30.3809ZM51.5332 29.6484C51.5332 29.3994 51.3574 29.209 51.0498 29.209C50.7422 29.209 50.5811 29.3848 50.5811 29.6338V29.6484C50.5811 29.8975 50.7715 30.0732 51.0645 30.0732C51.3574 30.0586 51.5332 29.8828 51.5332 29.6484Z" fill="#6CADDF"/>
<path d="M54.1113 30.9229H52.749L52.6465 30.4834L54.1699 28.7109H54.6826V30.4248H55.0635V30.9229H54.6826V31.5234H54.0967V30.9229H54.1113ZM54.1113 30.4248V29.5605L53.3643 30.4248H54.1113Z" fill="#6CADDF"/>
<path d="M30 47.4316C20.3906 47.4316 12.5684 39.6094 12.5684 30C12.5684 20.3906 20.3906 12.5684 30 12.5684C39.6094 12.5684 47.4316 20.3906 47.4316 30C47.4316 39.6094 39.6094 47.4316 30 47.4316ZM30 13.2129C20.7422 13.2129 13.2129 20.7422 13.2129 30C13.2129 39.2578 20.7422 46.7871 30 46.7871C39.2578 46.7871 46.7871 39.2578 46.7871 30C46.7871 20.7422 39.2578 13.2129 30 13.2129Z" fill="white"/>
<path fill-rule="evenodd" clip-rule="evenodd" d="M29.6777 14.9854C21.0791 14.9854 16.1133 16.1133 16.1133 16.1133C16.1133 16.1133 14.1358 23.6572 15.2637 33.3105C15.7324 37.3682 19.0283 46.084 29.9561 49.0723C40.8838 46.0986 44.1797 37.3682 44.6484 33.3105C45.7764 23.6426 43.7988 16.1133 43.7988 16.1133C43.7988 16.1133 38.833 14.9854 30.2344 14.9854H29.6777Z" fill="#001838"/>
<path fill-rule="evenodd" clip-rule="evenodd" d="M43.1396 31.0693C43.0371 33.999 42.583 42.7588 29.9414 47.5781C17.4023 42.8906 16.7432 33.8232 16.7432 31.0693H43.1396Z" fill="#97C1E7"/>
<path fill-rule="evenodd" clip-rule="evenodd" d="M42.7589 30.5859C43.0958 23.3203 41.8653 17.4316 41.8653 17.4316C41.8653 17.4316 37.1486 16.5234 29.9562 16.5234C22.7491 16.5234 17.9591 17.5195 17.9591 17.5195C17.9591 17.5195 16.6554 23.4375 17.007 30.5713H42.7589V30.5859Z" fill="white"/>
<path d="M30.3372 47.3145L16.9925 31.1865C16.5091 34.5117 19.2044 44.3115 30.3372 47.3145Z" fill="#6CADDF"/>
<path d="M20.9766 31.084L33.3252 45.9814C34.5703 45.3809 35.4932 44.7949 36.3721 44.0918L25.5908 31.084H20.9766Z" fill="#6CADDF"/>
<path d="M29.5459 31.0986L38.6719 42.0996C39.5654 41.0889 40.3271 40.166 40.8691 39.1992L34.1602 31.0986H29.5459Z" fill="#6CADDF"/>
<path d="M42.9204 31.0986L38.3647 31.084L42.188 35.6982C42.8472 34.2773 42.9204 31.8896 42.9204 31.0986Z" fill="#6CADDF"/>
<path d="M35.332 37.1338C35.3027 37.0312 35.2148 36.9434 35.1123 36.8994L34.3506 36.6357C34.2773 36.6064 34.2188 36.6211 34.1455 36.6357C34.0869 36.3721 33.9404 36.1377 33.7207 35.9766C33.6914 35.9619 33.6621 35.9326 33.6328 35.918C33.5889 35.8887 33.5303 35.8594 33.4717 35.8301C33.3691 35.7861 33.2666 35.7568 33.1787 35.7275C32.959 35.6543 32.7393 35.5811 32.4609 35.3906C32.1973 35.2002 32.0801 35.0244 31.9629 34.8633C31.9336 34.8193 31.9043 34.79 31.875 34.7461C31.8018 34.6289 31.6992 34.5264 31.5967 34.4385C31.4062 34.3066 31.1719 34.2334 30.9375 34.2334C30.8789 34.2334 30.835 34.248 30.7764 34.248C30.7764 34.248 30.7764 34.248 30.7764 34.2334C30.791 34.1455 30.7617 34.043 30.7178 33.9697L30.249 33.3398C30.1758 33.252 30.0732 33.1934 29.9561 33.1934C29.8389 33.1934 29.7363 33.2373 29.6777 33.3252L29.1797 33.9551C29.1211 34.0283 29.0918 34.1309 29.1064 34.2334C29.0625 34.2334 29.0332 34.2187 28.9893 34.2187C28.7549 34.2187 28.5205 34.292 28.3301 34.4238C28.3008 34.4385 28.2715 34.4678 28.2568 34.4824C28.2129 34.5264 28.1689 34.5557 28.125 34.6143C28.0518 34.7021 27.9932 34.7754 27.9346 34.8633C27.7881 35.0537 27.6709 35.2295 27.3779 35.4346C27.1143 35.625 26.9092 35.6836 26.7187 35.7422C26.6748 35.7568 26.6309 35.7715 26.5869 35.7861C26.4551 35.8154 26.3232 35.874 26.2061 35.9619C25.9717 36.123 25.8252 36.3721 25.7666 36.6504C25.6934 36.6211 25.6055 36.6211 25.5176 36.6357L24.7705 36.8848C24.668 36.9141 24.5801 37.002 24.5361 37.1045C24.5068 37.207 24.5215 37.3242 24.5801 37.4121L25.0342 38.0713C25.0928 38.1445 25.166 38.1885 25.2539 38.2178C25.1367 38.4668 25.1074 38.7744 25.1953 39.0381C25.21 39.0674 25.2246 39.0967 25.2246 39.126C25.2393 39.1846 25.2686 39.2432 25.3125 39.3018C25.3711 39.3896 25.4297 39.4775 25.4883 39.5508C25.6348 39.7412 25.7666 39.917 25.8691 40.2539C25.9717 40.5615 25.957 40.7666 25.957 40.9717C25.957 41.0156 25.957 41.0742 25.957 41.1182C25.9424 41.2646 25.957 41.3965 26.0156 41.5283C26.1035 41.792 26.2939 42.0117 26.5137 42.1436C26.4844 42.2021 26.4551 42.2607 26.4697 42.3193V43.1103C26.4697 43.2275 26.5283 43.3301 26.6162 43.3887C26.7041 43.4473 26.8213 43.4766 26.9238 43.4473L27.7002 43.2275C27.7734 43.2129 27.8174 43.1543 27.8613 43.1103C28.0957 43.3301 28.418 43.4326 28.7256 43.418C28.7842 43.418 28.8428 43.4033 28.916 43.3887C29.0186 43.3594 29.1211 43.3301 29.209 43.3008C29.4287 43.2275 29.6484 43.1543 30 43.1543C30.3223 43.1543 30.5127 43.2275 30.7178 43.2861C30.7617 43.3008 30.8057 43.3154 30.8496 43.3301C30.9814 43.3887 31.1279 43.4033 31.2598 43.4033C31.5381 43.4033 31.8164 43.2861 32.0215 43.0957C32.0654 43.1543 32.1094 43.1836 32.1826 43.2129L32.9443 43.4473C33.0469 43.4766 33.1641 43.4619 33.2666 43.4033C33.3545 43.3447 33.4131 43.2422 33.4131 43.125L33.4277 42.334C33.4277 42.2754 33.4131 42.2168 33.3838 42.1582C33.6182 42.0264 33.8086 41.8066 33.8818 41.543C33.8965 41.5137 33.8965 41.4844 33.9111 41.4404C33.9258 41.3818 33.9404 41.3232 33.9404 41.25C33.9551 41.1475 33.9551 41.0449 33.9551 40.9424C33.9551 40.708 33.9551 40.4883 34.0576 40.1514C34.1602 39.8437 34.2773 39.6826 34.4092 39.5215C34.4385 39.4775 34.4678 39.4482 34.4971 39.4043C34.585 39.3018 34.6582 39.1699 34.7021 39.0381C34.79 38.7598 34.7607 38.4521 34.6289 38.1885C34.7021 38.1592 34.7607 38.1299 34.8047 38.0713L35.2734 37.4268C35.3467 37.3535 35.376 37.251 35.332 37.1338Z" fill="#001838"/>
<path d="M29.5312 38.8477C29.5312 38.5986 29.7363 38.4082 29.9854 38.4082C30.2344 38.4082 30.4395 38.6133 30.4395 38.8477C30.4395 39.0967 30.2344 39.2871 29.9854 39.2871C29.7363 39.2871 29.5312 39.082 29.5312 38.8477Z" fill="#FFC758"/>
<path d="M29.9707 35.0684C29.8975 34.79 29.7217 34.5557 29.502 34.4238L29.9707 33.8232L30.4102 34.4238C30.1904 34.5703 30.0439 34.79 29.9707 35.0684ZM26.3818 37.6758C26.1475 37.5147 25.9863 37.3096 25.8984 37.0605L25.1953 37.2949L25.6201 37.9102C25.8252 37.7637 26.1035 37.6758 26.3818 37.6758ZM27.7734 41.8213C27.5537 41.9971 27.3047 42.085 27.0264 42.085V42.832L27.7588 42.6123C27.6709 42.3779 27.6709 42.0996 27.7734 41.8213ZM32.168 41.8359C32.2705 42.0996 32.2705 42.3633 32.1826 42.6123L32.9004 42.832L32.915 42.085C32.666 42.0996 32.4023 42.0117 32.168 41.8359ZM33.5303 37.6904C33.8232 37.6758 34.0723 37.749 34.2773 37.9102L34.7168 37.3096L33.999 37.0605C33.9404 37.2949 33.7646 37.5293 33.5303 37.6904ZM29.0625 41.8506C28.7256 41.8506 28.4619 41.5869 28.4619 41.25C28.4619 41.2061 28.418 41.1914 28.3887 41.2207C28.1689 41.4844 28.0078 41.7188 27.9932 41.9971C27.9785 42.4072 28.3301 42.7441 28.7549 42.7441C28.7842 42.7441 28.8135 42.7441 28.8281 42.7441C28.8721 42.7441 28.9014 42.7441 28.96 42.7295C29.2529 42.6563 29.5166 42.5098 30.0146 42.5098C30.4395 42.5098 30.6592 42.627 30.8789 42.6855C30.9668 42.7148 31.0693 42.7441 31.1719 42.7441C31.5967 42.7441 31.9336 42.4072 31.9336 41.9971C31.9336 41.7041 31.7578 41.4844 31.5381 41.2207C31.5234 41.1914 31.4795 41.2207 31.4795 41.25C31.4795 41.5723 31.2012 41.8506 30.8789 41.8506C30.6299 41.8506 30.3076 41.6309 29.9854 41.6309C29.707 41.6309 29.3115 41.8506 29.0625 41.8506ZM28.667 41.0303C28.667 41.3086 28.8867 41.5283 29.165 41.5283C29.1943 41.5283 29.2236 41.5283 29.2676 41.5137C29.2822 41.5137 29.2969 41.5137 29.3115 41.499H29.3262C29.502 41.4404 29.6631 41.3672 29.9707 41.3672C30.2783 41.3672 30.4248 41.4551 30.6006 41.499C30.6592 41.5137 30.7178 41.5283 30.7764 41.5283C31.0547 41.5283 31.2744 41.3086 31.2744 41.0303C31.2744 40.957 31.2598 40.8838 31.2305 40.8252C31.2158 40.7959 31.2012 40.7666 31.1865 40.752C31.1865 40.752 30.3369 39.5947 30.3076 39.5654C30.2637 39.5068 30.2051 39.5361 30.1758 39.5508C30.1318 39.5654 30.0293 39.5947 29.9561 39.5947C29.8828 39.5947 29.7949 39.5801 29.751 39.5508C29.6924 39.5215 29.6484 39.5068 29.6191 39.5654C29.5898 39.6094 28.9746 40.4443 28.7842 40.708C28.7109 40.7959 28.667 40.8984 28.667 41.0303ZM32.5781 40.6494C32.4756 40.9717 32.1387 41.1328 31.8164 41.0303C31.7725 41.0156 31.7432 41.0449 31.7725 41.0889C31.9629 41.3672 32.124 41.6016 32.4023 41.7041C32.7979 41.8359 33.2373 41.6162 33.3545 41.2207C33.3691 41.1914 33.3691 41.1768 33.3691 41.1475C33.3838 41.1182 33.3838 41.0742 33.3984 41.0303C33.4277 40.7227 33.3545 40.4443 33.5156 39.9609C33.6475 39.5654 33.8232 39.3897 33.9551 39.1992C34.0137 39.126 34.0723 39.0381 34.1016 38.9502C34.2334 38.5547 34.0137 38.1152 33.6182 37.998C33.3398 37.9102 33.0615 38.0127 32.7393 38.1299C32.71 38.1445 32.71 38.1738 32.7539 38.1885C33.0762 38.291 33.252 38.6279 33.1494 38.9502C33.0762 39.1846 32.7686 39.4189 32.666 39.7266C32.5781 39.9756 32.666 40.4004 32.5781 40.6494ZM31.6699 40.7666C31.9336 40.8545 32.2266 40.708 32.3145 40.4443C32.3291 40.415 32.3291 40.3857 32.3291 40.3418C32.3291 40.3271 32.3291 40.3125 32.3291 40.2979V40.2832C32.3291 40.1074 32.2998 39.917 32.3877 39.6387C32.4902 39.3457 32.6074 39.2285 32.71 39.082C32.7393 39.0381 32.7686 38.9795 32.7979 38.9209C32.8857 38.6572 32.7393 38.3789 32.4756 38.291C32.4023 38.2764 32.3291 38.2617 32.2705 38.2764C32.2412 38.2764 32.2119 38.2764 32.1826 38.291C32.1826 38.291 30.8057 38.7305 30.7617 38.7451C30.7031 38.7744 30.7031 38.833 30.7031 38.8623C30.7031 38.9062 30.6885 39.0088 30.6738 39.082C30.6592 39.1406 30.6152 39.2285 30.5713 39.2725C30.5273 39.3164 30.498 39.3604 30.542 39.4043C30.5859 39.4482 31.1719 40.2832 31.377 40.5469C31.4502 40.6494 31.5527 40.7227 31.6699 40.7666ZM32.4902 36.9287C32.7686 37.1191 32.8271 37.5 32.6221 37.7637C32.5928 37.793 32.6221 37.8369 32.666 37.8223C33.0029 37.7344 33.2666 37.6465 33.4424 37.4121C33.6914 37.0752 33.6182 36.6064 33.2812 36.3574C33.2666 36.3428 33.2373 36.3281 33.208 36.3135C33.1787 36.2842 33.1494 36.2695 33.0908 36.2549C32.8125 36.1377 32.5195 36.1084 32.1094 35.8154C31.7725 35.5664 31.6553 35.3467 31.5088 35.1563C31.4648 35.083 31.3916 35.0098 31.3037 34.9365C30.9668 34.6875 30.4834 34.7607 30.249 35.0977C30.0879 35.332 30.0879 35.625 30.1025 35.9619C30.1025 35.9912 30.1465 36.0059 30.1611 35.9619C30.3516 35.6982 30.7324 35.6397 31.0107 35.8301C31.2158 35.9766 31.3477 36.3428 31.6113 36.5186C31.8457 36.7383 32.2852 36.7822 32.4902 36.9287ZM32.3291 37.8369C32.4902 37.6172 32.4463 37.2949 32.2119 37.1338C32.1973 37.1191 32.168 37.0898 32.124 37.0752C32.1094 37.0752 32.0947 37.0605 32.0801 37.0605H32.0654C31.8896 37.002 31.7139 36.9727 31.4648 36.7969C31.2158 36.6211 31.1426 36.46 31.04 36.3281C31.0107 36.2842 30.9668 36.2402 30.9229 36.1963C30.7031 36.0352 30.3809 36.0791 30.2197 36.3135C30.1758 36.3721 30.1465 36.4307 30.1318 36.5039C30.1318 36.5332 30.1172 36.5625 30.1172 36.5918C30.1172 36.5918 30.1172 38.0273 30.1172 38.0713C30.1172 38.1445 30.1758 38.1445 30.2197 38.1592C30.2637 38.1738 30.3662 38.2178 30.4102 38.2471C30.4688 38.291 30.5273 38.3496 30.5566 38.3936C30.5859 38.4375 30.6152 38.4814 30.6738 38.4521C30.7324 38.4229 31.7139 38.1152 32.0215 38.0127C32.1533 37.998 32.2559 37.9248 32.3291 37.8369ZM28.916 35.874C29.1797 35.6836 29.5605 35.7422 29.7656 36.0059C29.7949 36.0352 29.8389 36.0352 29.8389 35.9912C29.8535 35.6543 29.8535 35.3613 29.6924 35.127C29.458 34.79 28.9746 34.7168 28.6377 34.9658C28.6084 34.9805 28.5938 34.9951 28.5791 35.0098C28.5498 35.0244 28.5205 35.0537 28.4912 35.0977C28.2861 35.332 28.1689 35.5957 27.7588 35.8887C27.4219 36.1377 27.1729 36.1816 26.9531 36.2402C26.8652 36.2695 26.7627 36.2988 26.6895 36.3574C26.3525 36.6064 26.2646 37.0752 26.5283 37.4121C26.7041 37.6465 26.9824 37.7344 27.3047 37.8223C27.334 37.8369 27.3486 37.793 27.334 37.7637C27.1436 37.5 27.2021 37.1191 27.4658 36.9287C27.6709 36.7822 28.0518 36.7676 28.3154 36.5771C28.5205 36.4307 28.7109 36.0205 28.916 35.874ZM29.7363 36.3135C29.5752 36.0938 29.2529 36.0352 29.0332 36.1963C29.0039 36.2109 28.9893 36.2256 28.96 36.2549C28.9453 36.2695 28.9453 36.2695 28.9307 36.2842L28.916 36.2988C28.8135 36.4453 28.7256 36.6064 28.4766 36.7822C28.2275 36.958 28.0518 36.9727 27.8906 37.0459C27.832 37.0605 27.7734 37.0898 27.7295 37.1191C27.5098 37.2803 27.4512 37.5879 27.6123 37.8223C27.6562 37.8809 27.7148 37.9248 27.7734 37.9541C27.8027 37.9688 27.8174 37.9834 27.8467 37.9834C27.8467 37.9834 29.2236 38.4229 29.2676 38.4375C29.3408 38.4521 29.3701 38.4082 29.3848 38.3789C29.4141 38.3496 29.4727 38.2617 29.5313 38.2178C29.5898 38.1738 29.6631 38.1445 29.7217 38.1299C29.7803 38.1152 29.8242 38.1006 29.8242 38.042C29.8242 37.9834 29.8242 36.958 29.8242 36.6357C29.8389 36.5332 29.8096 36.416 29.7363 36.3135ZM26.8066 38.9355C26.7041 38.6133 26.8799 38.2764 27.1875 38.1738C27.2314 38.1592 27.2314 38.1152 27.2021 38.1006C26.8799 37.9834 26.6016 37.8809 26.3379 37.9688C25.9424 38.0859 25.7227 38.5254 25.8545 38.9209C25.8545 38.9502 25.8691 38.9648 25.8838 38.9941C25.8984 39.0234 25.9131 39.0674 25.9424 39.1113C26.1035 39.375 26.3232 39.5654 26.4844 40.0488C26.6162 40.4443 26.5723 40.6934 26.5723 40.9277C26.5576 41.0156 26.5723 41.1182 26.6016 41.2207C26.7334 41.6162 27.1582 41.8359 27.5537 41.7041C27.832 41.6162 27.9932 41.3818 28.1836 41.0889C28.1982 41.0596 28.1689 41.0303 28.1396 41.0449C27.8174 41.1475 27.4805 40.9717 27.3779 40.6641C27.3047 40.4297 27.4072 40.0635 27.3047 39.7559C27.2168 39.4775 26.8799 39.1699 26.8066 38.9355ZM27.4658 38.3057C27.2021 38.3936 27.0557 38.6719 27.1436 38.9355C27.1436 38.9648 27.1582 38.9941 27.1875 39.0234C27.2021 39.0381 27.2021 39.0527 27.2168 39.0527C27.2168 39.0527 27.2168 39.0674 27.2314 39.0674C27.334 39.2139 27.4658 39.3457 27.5684 39.624C27.6709 39.917 27.627 40.0781 27.6416 40.2539C27.6416 40.3125 27.6416 40.3711 27.6709 40.4297C27.7588 40.6934 28.0371 40.8398 28.3008 40.752C28.374 40.7373 28.4326 40.6934 28.4766 40.6494C28.4912 40.6348 28.5205 40.6055 28.5352 40.5908C28.5352 40.5908 29.3848 39.4336 29.3994 39.3896C29.4434 39.3311 29.3994 39.2871 29.3701 39.2578C29.3408 39.2285 29.2822 39.1406 29.2676 39.0674C29.2529 39.0088 29.2383 38.9209 29.2383 38.8623C29.2383 38.8037 29.2383 38.7598 29.1797 38.7451C29.1211 38.7305 28.1396 38.4082 27.832 38.3057C27.7148 38.2764 27.5977 38.2617 27.4658 38.3057Z" fill="#EE3124"/>
<path d="M34.1895 23.3496L37.2803 22.2803C37.2803 22.2803 37.0166 23.5693 37.0898 24.5654C37.1777 25.8545 37.9248 26.8359 37.9248 26.8359L34.1162 28.1543L34.1895 23.3496Z" fill="#FFC758"/>
<path d="M37.9249 26.8359C37.9249 26.8359 37.2511 25.8691 37.1339 24.7412C37.046 23.8916 37.1339 23.1592 37.2804 22.2803C37.1486 22.8662 36.6505 24.5215 35.2589 26.0596C34.7023 26.6748 34.4533 27.2168 34.3507 27.5977L34.2921 20.3174C34.2921 20.3174 33.5597 20.5811 33.4865 20.5957C33.3986 20.625 33.3546 20.6836 33.3546 20.6982C33.3546 20.7422 33.3253 20.7715 33.2667 20.7861C33.2081 20.8008 32.7833 20.9619 32.4904 21.0498C32.4318 21.0645 32.4611 21.123 32.4904 21.123C32.8419 21.1084 33.34 21.0645 33.3839 21.0645C33.4572 21.0498 33.4865 21.0205 33.4865 20.9766C33.4865 20.9766 33.4865 20.9766 33.4865 20.9619C33.5011 20.9033 33.5451 20.8594 33.6037 20.8594C33.6476 20.8594 33.9113 20.8301 34.0724 20.8008L33.9992 28.6377H34.3507V28.0811L37.9249 26.8359Z" fill="#D4A11E"/>
<path d="M24.2284 28.3594C24.2284 28.3594 23.6571 27.9346 23.496 27.1289C23.3349 26.3086 23.745 25.8398 23.745 25.8398L27.495 24.5508C27.495 24.5508 27.2607 25.2979 27.4804 26.1475C27.7587 27.2168 28.33 27.9346 28.33 27.9346C28.33 27.9346 26.953 27.6709 25.62 27.8467C24.3603 28.0078 24.2284 28.3594 24.2284 28.3594Z" fill="#FFC758"/>
<path d="M19.9219 27.4219C19.9219 27.4219 20.3906 26.1475 21.7529 24.7559C22.793 23.7012 23.4668 23.3936 23.4668 23.3936C23.4668 23.3936 22.8662 24.2578 22.6172 25.6787C22.4561 26.5576 22.6318 27.6709 22.6318 27.6709C22.6318 27.6709 21.9287 27.5244 21.123 27.4365C20.4492 27.3633 19.9219 27.4219 19.9219 27.4219Z" fill="#FFC758"/>
<path d="M23.4669 23.3936C23.4669 23.3936 22.881 24.2578 22.632 25.6787C22.4708 26.5576 22.6466 27.6709 22.6466 27.6709C22.6466 27.6709 22.4708 27.627 22.0607 27.5391C20.3907 27.1582 23.4669 23.3936 23.4669 23.3936Z" fill="#D4A11E"/>
<path d="M25.6642 24.4189L25.6349 21.0498C25.5617 21.0791 24.9025 21.2988 24.8292 21.3281C24.7413 21.3574 24.6974 21.416 24.6974 21.4453C24.6974 21.4893 24.6681 21.5186 24.6095 21.5332C24.5509 21.5479 24.1261 21.6943 23.8331 21.7969C23.7746 21.8115 23.8038 21.8701 23.8331 21.8701C24.1701 21.8555 24.6828 21.8115 24.7267 21.8115C24.7999 21.7969 24.8292 21.7676 24.8439 21.7236C24.8439 21.7236 24.8439 21.7236 24.8439 21.709C24.8585 21.6504 24.9025 21.6064 24.9611 21.6064C25.005 21.6064 25.254 21.5771 25.4298 21.5625L25.4005 24.4336H25.6642V24.4189Z" fill="#D4A11E"/>
<path d="M30.0294 21.3721H30.2931V18.1348C30.2931 18.1348 29.5607 18.3984 29.4874 18.4131C29.3996 18.4424 29.3556 18.501 29.3556 18.5156C29.3556 18.5596 29.3263 18.5889 29.2677 18.6035C29.2091 18.6182 28.7843 18.7646 28.4913 18.8672C28.4328 18.8818 28.4621 18.9404 28.4913 18.9404C28.8429 18.9258 29.341 18.8818 29.3849 18.8818C29.4581 18.8672 29.4874 18.8379 29.5021 18.7939C29.5167 18.7354 29.5607 18.6914 29.6193 18.6914C29.6632 18.6914 29.8976 18.6621 30.0734 18.6475L30.0294 21.3721Z" fill="#D4A11E"/>
<path d="M29.3701 18.8965H29.3848C29.458 18.8818 29.4873 18.8525 29.4873 18.8086C29.4873 18.7646 29.5166 18.7354 29.5605 18.7207L29.4727 18.4424C29.3848 18.4717 29.3555 18.5303 29.3555 18.5449C29.3555 18.5889 29.3262 18.6035 29.2822 18.6182L29.3701 18.8965Z" fill="#FFC758"/>
<path d="M24.7119 21.7969H24.7266C24.7998 21.7822 24.8291 21.7529 24.8291 21.709C24.8437 21.665 24.8584 21.6357 24.9023 21.6211L24.8145 21.3428C24.7266 21.3721 24.6973 21.4307 24.6973 21.4453C24.6973 21.4893 24.668 21.5039 24.624 21.5186L24.7119 21.7969Z" fill="#FFC758"/>
<path d="M33.3545 21.0645H33.3691C33.4424 21.0498 33.4717 21.0205 33.4717 20.9766C33.4863 20.9326 33.501 20.9033 33.5449 20.8887L33.457 20.6104C33.3691 20.6396 33.3398 20.6982 33.3398 20.7129C33.3398 20.7568 33.3105 20.7715 33.2666 20.7861L33.3545 21.0645Z" fill="#FFC758"/>
<path d="M28.33 27.9346C28.33 27.9346 27.7294 27.0557 27.4951 26.1182C27.29 25.3125 27.4951 24.5508 27.4951 24.5508C27.4951 24.5508 27.0995 25.9277 26.1474 26.6748C25.4882 27.2021 23.8622 27.6855 24.2431 28.3594C24.3017 28.2715 24.4628 28.0957 25.122 27.9346C25.1952 27.9199 25.2831 27.9053 25.371 27.8906V29.0039H25.7226V27.8467C26.9384 27.7148 28.33 27.9346 28.33 27.9346Z" fill="#D4A11E"/>
<path d="M23.833 25.6055C23.833 25.6055 23.3936 25.3418 23.4522 24.4922C23.5107 23.6133 23.9502 23.2324 23.9502 23.2031L26.8652 22.207C26.8652 22.207 26.6455 22.6465 26.8066 23.3057C26.9824 24.0967 27.4951 24.5508 27.4951 24.5508C27.4951 24.5508 26.0303 24.5654 24.7119 25.0195C24.0674 25.2393 23.833 25.6055 23.833 25.6055Z" fill="#FFC758"/>
<path d="M25.5617 23.7744C26.3967 23.0859 26.8508 22.207 26.8508 22.207C26.8508 22.207 26.7336 22.7637 26.8215 23.2617C26.9826 24.1113 27.4807 24.5508 27.4807 24.5508C27.4807 24.5508 26.2942 24.5654 25.0198 24.9316C24.1701 25.166 23.9065 25.5029 23.8332 25.6201C23.5549 24.9756 24.7121 24.4775 25.5617 23.7744Z" fill="#D4A11E"/>
<path d="M28.8868 28.5791C28.8868 28.5791 28.0812 27.9785 27.8907 26.8506C27.7296 25.957 28.3302 25.3125 28.3302 25.3125L32.8859 23.7451C32.8859 23.7451 32.6368 24.7559 32.8712 25.7227C33.1349 26.8066 34.131 28.1543 34.131 28.1543C34.131 28.1543 32.2413 27.6123 30.6007 27.8174C29.0333 28.0225 28.8868 28.5791 28.8868 28.5791Z" fill="#FFC758"/>
<path d="M27.9637 21.3574C27.9344 20.6689 28.4178 20.1123 28.4324 20.083L31.699 18.9404C31.699 18.9404 31.4793 19.4531 31.5379 19.8926C31.6404 20.7275 32.1092 21.167 32.1092 21.167C32.1092 21.167 30.8201 21.0938 29.3113 21.6211C28.4764 21.9141 28.3885 22.3096 28.3885 22.3096C28.3885 22.3096 27.993 22.207 27.9637 21.3574Z" fill="#FFC758"/>
<path d="M30.5422 20.4785C31.1281 19.9658 31.6994 18.9551 31.6994 18.9551C31.6994 18.9551 31.4797 19.4678 31.5383 19.9072C31.6408 20.7422 32.1096 21.1816 32.1096 21.1816C32.1096 21.1816 30.718 21.167 29.385 21.6357C28.8137 21.8408 28.4475 22.1484 28.4035 22.3242C28.2131 21.6797 29.7365 21.1816 30.5422 20.4785Z" fill="#D4A11E"/>
<path d="M28.4325 25.1221C28.4325 25.1221 27.9637 24.5801 27.8758 23.7305C27.7879 22.8516 28.3006 22.5 28.3446 22.4707L32.1239 21.167C32.1239 21.167 32.0213 21.4453 32.1092 22.207C32.1971 22.8516 32.827 23.7305 32.827 23.7305C32.827 23.7305 30.8055 23.7891 29.5604 24.2725C28.7694 24.5801 28.4325 25.1221 28.4325 25.1221Z" fill="#FFC758"/>
<path d="M30.9374 22.9395C31.7577 22.2363 32.1239 21.1816 32.1239 21.1816C32.1239 21.1816 32.0214 21.7822 32.1239 22.251C32.3144 23.0713 32.9003 23.7598 32.9003 23.7598C32.9003 23.7598 31.1425 23.7891 29.8681 24.2139C29.0331 24.4922 28.5204 24.9902 28.4472 25.1367C28.2568 24.4189 30.1171 23.6426 30.9374 22.9395Z" fill="#D4A11E"/>
<path d="M34.204 28.2275C34.204 28.2275 33.1786 26.8945 32.871 25.7227C32.6806 24.9463 32.827 24.0674 32.8856 23.7598C32.7684 24.1699 32.3583 25.5029 31.3475 26.4404C30.3807 27.334 28.4765 27.7588 28.8866 28.5937C28.9599 28.4619 29.1796 28.1396 29.9559 27.9492L29.9413 29.0186H30.3075V27.876C31.9921 27.6123 34.204 28.2275 34.204 28.2275Z" fill="#D4A11E"/>
<path fill-rule="evenodd" clip-rule="evenodd" d="M35.962 30.7324C36.1964 30.6885 36.4307 30.6299 36.7823 30.542C36.7676 30.5273 36.7383 30.5127 36.7237 30.498C36.3428 30.0732 36.4014 29.6191 36.6358 29.3994C37.4854 28.6084 37.4708 28.0225 37.4708 28.0225C37.4708 28.0225 35.4053 28.4473 32.6807 28.5938C32.505 28.6084 31.8751 28.8867 31.6846 28.8867C31.3038 28.9014 30.9229 28.916 30.5274 28.916C25.3858 28.96 23.9503 28.5938 22.2657 28.2861C20.5518 27.9639 19.8048 27.627 19.8048 27.627L19.7462 27.8027C19.7462 27.8027 21.0938 28.3301 22.0606 28.7988C22.2657 28.9014 23.0714 30.1025 23.335 30.5127H17.2266C16.8897 23.5107 18.2374 17.7832 18.2374 17.7832C18.2374 17.7832 22.9102 16.7871 29.9415 16.7871V16.04C22.4854 16.04 17.5196 17.0947 17.5196 17.0947C17.5196 17.0947 15.3516 24.7412 16.4942 33.8525C16.9776 37.6465 20.1124 44.751 29.9122 48.0469L30.337 47.4463L29.9122 46.8457C20.6837 43.7549 17.9884 37.5 17.5196 33.9404C17.4171 33.1494 17.3438 32.3584 17.2852 31.5967H29.9561V30.5273H23.4522C23.5987 30.0586 24.0528 29.9414 24.6241 30.0732C25.21 30.2197 25.796 30.3662 26.3526 30.3369C27.7442 30.2637 27.5391 29.8975 27.671 29.8975C29.1065 29.9854 29.6485 30.3369 30.8936 30.3076C32.0362 30.293 32.4317 29.9854 32.5343 29.9854C33.9259 29.9707 34.4532 30.6152 35.8448 30.7324C35.8887 30.7324 35.9327 30.7324 35.962 30.7324Z" fill="#FFC758"/>
<path fill-rule="evenodd" clip-rule="evenodd" d="M42.3486 17.0947C42.3486 17.0947 37.3975 16.04 29.9414 16.04V16.7871C36.9727 16.7871 41.6309 17.7832 41.6309 17.7832C41.6309 17.7832 42.9932 23.5107 42.6416 30.5127H36.5186C36.0352 30.0439 36.3135 29.4287 36.4746 29.2822C37.1924 28.6377 37.1924 28.1982 37.1924 28.1982C37.1924 28.1982 35.5371 28.6084 32.8125 28.7256C32.6367 28.7256 31.875 29.0771 31.6846 29.0771C31.3037 29.0918 30.7764 29.1064 30.3809 29.1064C26.8359 29.1064 25.0928 29.0332 22.0166 28.374C22.0752 28.4473 22.1045 28.4766 22.1631 28.5645C22.1777 28.5938 23.5107 28.9307 23.5254 28.96C23.7305 29.2383 23.9941 29.4287 24.3164 29.6045C24.8145 29.8682 25.5469 30.0879 26.1475 30.1318C27.5391 30.2197 27.2754 29.6924 27.4072 29.6924C28.8281 29.6631 29.751 30.1758 30.9961 30.1611C32.1387 30.1465 32.168 29.7803 32.2852 29.7803C33.4131 29.7217 34.5557 30.2051 35.5371 30.5273H29.9414V31.5967H42.5684C42.5098 32.373 42.4365 33.1494 42.334 33.9404C41.8652 37.5146 39.1699 43.7549 29.9414 46.8457V48.0469C39.7412 44.751 42.8906 37.6611 43.3594 33.8525C44.5166 24.7412 42.3486 17.0947 42.3486 17.0947Z" fill="#D4A11E"/>
<path d="M7.06055 20.3906L7.57324 19.4092L9.8877 19.248L8.71582 17.2412L9.22852 16.2744L13.3447 18.4424L12.876 19.3359L10.1807 17.9297L11.3379 20.0098L11.3232 20.0244L8.97949 20.2588L11.6455 21.665L11.1768 22.5586L7.06055 20.3906Z" fill="#001838"/>
<path d="M11.7627 13.0664L12.4072 12.3779L17.1826 14.1357L16.4502 14.9121L15.3955 14.502L14.0479 15.9375L14.5166 16.9629L13.7988 17.7246L11.7627 13.0664ZM14.502 14.165L12.9785 13.5791L13.6523 15.0586L14.502 14.165Z" fill="#001838"/>
<path d="M15.4541 9.68262L16.2598 9.19922L19.6143 10.5176L18.1348 8.07129L18.999 7.54395L21.4014 11.5137L20.6543 11.9678L17.1973 10.6055L18.7354 13.1396L17.8711 13.667L15.4541 9.68262Z" fill="#001838"/>
<path d="M21.7091 8.87699C21.3429 7.58793 21.9875 6.26957 23.3644 5.87406C24.1994 5.62504 24.8 5.77152 25.3273 6.04984L24.9025 6.95805C24.4631 6.73832 24.0675 6.65043 23.6134 6.78227C22.8664 7.00199 22.5002 7.77836 22.7199 8.55473V8.56937C22.9396 9.33109 23.6574 9.81449 24.4191 9.59477C24.9318 9.44828 25.1808 9.15531 25.4445 8.73051L26.2502 9.18461C25.9279 9.81449 25.5031 10.2686 24.6535 10.5176C23.3498 10.8985 22.0754 10.1661 21.7091 8.87699Z" fill="#001838"/>
<path d="M27.29 5.1416L28.3008 5.1123L28.3594 6.95801L30.2344 6.91406L30.1904 5.06836L31.2158 5.03906L31.333 9.69727L30.3076 9.72656L30.2637 7.85156L28.374 7.91016L28.4326 9.77051L27.4072 9.7998L27.29 5.1416Z" fill="#001838"/>
<path d="M37.2363 10.327L38.0859 9.91683C38.3203 10.4002 38.6279 10.7957 39.1113 11.0155C39.4922 11.1912 39.7852 11.1473 39.9023 10.8983V10.8836C40.0195 10.6493 39.917 10.4588 39.3018 9.96077C38.5547 9.34554 38.1152 8.86214 38.4961 8.02718V8.01253C38.8477 7.25081 39.6973 7.03109 40.5615 7.42659C41.1768 7.70491 41.6162 8.14437 41.8799 8.68636L41.0742 9.16976C40.8252 8.73031 40.5176 8.40804 40.166 8.24691C39.8145 8.08577 39.5508 8.15902 39.4482 8.36409V8.37874C39.3164 8.65706 39.4629 8.83284 40.1074 9.36019C40.8545 9.97542 41.2061 10.5174 40.8545 11.2498V11.2645C40.4736 12.0994 39.6094 12.2752 38.7012 11.8651C38.0859 11.5428 37.5439 11.0155 37.2363 10.327Z" fill="#001838"/>
<path d="M44.0332 10.6055L42.9053 9.74121L43.4766 8.99414L46.5381 11.3232L45.9668 12.085L44.8389 11.2207L42.5977 14.165L41.7773 13.5498L44.0332 10.6055Z" fill="#001838"/>
<path d="M51.3867 17.2119L52.3389 19.1162C52.6025 19.6436 52.6611 20.127 52.5293 20.5371C52.4121 20.8887 52.1484 21.167 51.7529 21.3721H51.7383C51.0645 21.709 50.4639 21.5625 49.9951 21.123L49.0137 22.8809L48.4717 21.8115L49.3506 20.2441L48.9844 19.5264L47.6514 20.2002L47.1973 19.292L51.3867 17.2119ZM50.2881 20.0684C50.5078 20.5078 50.874 20.6543 51.2256 20.4785H51.2402C51.6357 20.2881 51.6943 19.9072 51.4746 19.4678L51.0205 18.5596L49.834 19.1602L50.2881 20.0684Z" fill="#001838"/>
<path d="M34.1309 8.26172L35.8447 8.62793L36.3281 7.80762L34.3359 7.36816L34.5264 6.44531L36.958 6.97266L37.1631 6.09375L33.7207 5.34668L32.7393 9.8877L36.2109 10.6494L36.4014 9.75586L33.9258 9.21387L34.1309 8.26172Z" fill="#001838"/>
<path d="M47.9443 12.7148L44.3701 15.7031L46.6553 18.4131L47.3438 17.8271L45.7324 15.8936L46.4795 15.2637L47.6221 16.626L48.5449 16.3184L47.1826 14.6777L47.9004 14.0771L49.4971 15.9814L50.2002 15.3955L47.9443 12.7148Z" fill="#001838"/>
<path d="M22.1045 52.3828C22.1045 51.0205 23.1152 49.9219 24.5801 49.9219C25.4736 49.9219 26.001 50.2148 26.4551 50.6543L25.7959 51.416C25.4297 51.0791 25.0635 50.8887 24.5801 50.8887C23.7744 50.8887 23.2031 51.5479 23.2031 52.3682V52.3828C23.2031 53.1885 23.7598 53.877 24.5801 53.877C25.1221 53.877 25.459 53.6572 25.8252 53.3203L26.4844 53.9941C26.001 54.5215 25.459 54.8438 24.5361 54.8438C23.1445 54.8145 22.1045 53.7305 22.1045 52.3828Z" fill="#001838"/>
<path d="M27.4951 49.9951H28.5352V54.7266H27.4951V49.9951Z" fill="#001838"/>
<path d="M30.9521 50.9619H29.5166V49.9951H33.4424V50.9619H32.0068V54.7412H30.9668V50.9619H30.9521Z" fill="#001838"/>
<path d="M35.6982 52.8662L33.8818 49.9951H35.0977L36.2256 51.8994L37.3682 49.9951H38.5547L36.7383 52.8369V54.7266H35.6982V52.8662Z" fill="#001838"/>
</svg>
